{"title":"American Horror Story S05E06 Room33 1080p WEB-DL DD5 1 H 264-NTb","uid":12762031,"size":2063289695,"categoryP":"video","categoryS":"hd___tv_shows","magnet":"?xt=urn:btih:0f27b65b4f589335cc0a42fa13e8218f03d54c88&amp;dn=American+Horror+Story+S05E06+Room33+1080p+WEB-DL+DD5+1+H+264-NTb&amp;tr=udp%3A%2F%2Ftracker.leechers-paradise.org%3A6969&amp;tr=udp%3A%2F%2Fzer0day.ch%3A1337&amp;tr=udp%3A%2F%2Fopen.demonii.com%3A1337&amp;tr=udp%3A%2F%2Ftracker.coppersurfer.tk%3A6969&amp;tr=udp%3A%2F%2Fexodus.desync.com%3A6969","seeders":0,"leechers":1,"uploader":"cheerfulcaca","files":3,"time":1447542246,"description":"SEASON 5, EPISODE 6 BRIEF SYNOPSIS:\r\n\r\nRamona and Donovan enact their plan for revenge; Liz Taylor finds true love; the resident of Room 33 is revealed.\r\n\r\n\r\nSERIES INFO:\r\n\r\n8.3/10·IMDb\r\n8.6/10·TV.com\r\n\r\n&quot;American Horror Story&quot; was created by the co-creators of &quot;Glee,&quot; but the shows have little in common besides that. The show revolves around the Harmons, a family of three, who move from Boston to Los Angeles in order to reconcile past anguish. What the Harmons don't know is that the house they've moved into is haunted. But it's not haunted by Casperesque friendly ghosts -- it's haunted by demonic creatures. The creatures have a history of not only spooking the house's residents but also devouring them. After living in this house, family patriarch and psychiatrist, Ben, may need a shrink of his own.\r\n\r\n\r\nMEDIA INFO:\r\n\r\n\r\nVideo:\r\n\r\nID : 2\r\nFormat : AVC\r\nFormat/Info : Advanced Video Codec\r\nFormat profile :   \r\nFormat settings, CABAC : Yes\r\nFormat settings, ReFrames : 4 frames\r\nCodec ID : V_MPEG4/ISO/AVC\r\nDuration : 52mn 12s\r\nBit rate : 4 780 Kbps\r\nWidth : 1 920 pixels\r\nHeight : 1 080 pixels\r\nDisplay aspect ratio : 16:9\r\nFrame rate mode : Constant\r\nFrame rate : 23.976 fps\r\nColor space : YUV\r\nChroma subsampling : 4:2:0\r\nBit depth : 8 bits\r\nScan type : Progressive\r\nBits/(Pixel*Frame) : 0.096\r\nStream size : 1.74 GiB (91%)\r\nLanguage : English\r\nDefault : Yes\r\nForced : No\r\nColor range : Limited\r\nColor primaries : BT.709\r\nTransfer characteristics : BT.709\r\nMatrix coefficients : BT.709\r\n\r\n\r\nAudio:\r\n\r\nID : 3\r\nFormat : AC-3\r\nFormat/Info : Audio Coding 3\r\nMode extension : CM (complete main)\r\nFormat settings, Endianness : Big\r\nCodec ID : A_AC3\r\nDuration : 52mn 12s\r\nBit rate mode : Constant\r\nBit rate : 384 Kbps\r\nChannel(s) : 6 channels\r\nChannel positions : Front: L C R, Side: L R, LFE\r\nSampling rate : 48.0 KHz\r\nCompression mode : Lossy\r\nDelay relative to video : -15ms\r\nStream size : 143 MiB (7%)\r\nLanguage : English\r\nDefault : Yes\r\nForced : No\r\n\r\n\r\nText:\r\n\r\nID : 1\r\nFormat : UTF-8\r\nCodec ID : S_TEXT/UTF8\r\nCodec ID/Info : UTF-8 Plain Text\r\nLanguage : English\r\nDefault : Yes\r\nForced : No\r\n\r\nDOWNLOADED FROM:  https://rarbg.to","torrent":{"xt":"urn:btih:0f27b65b4f589335cc0a42fa13e8218f03d54c88","amp;dn":"American+Horror+Story+S05E06+Room33+1080p+WEB-DL+DD5+1+H+264-NTb","amp;tr":["udp%3A%2F%2Ftracker.leechers-paradise.org%3A6969","udp%3A%2F%2Fzer0day.ch%3A1337","udp%3A%2F%2Fopen.demonii.com%3A1337","udp%3A%2F%2Ftracker.coppersurfer.tk%3A6969","udp%3A%2F%2Fexodus.desync.com%3A6969"],"infoHash":"0f27b65b4f589335cc0a42fa13e8218f03d54c88","infoHashBuffer":{"type":"Buffer","data":[15,39,182,91,79,88,147,53,204,10,66,250,19,232,33,143,3,213,76,136]},"announce":[],"urlList":[]}}